<?xml version="1.0" encoding="UTF-8" standalone="no"?>
<!-- Created with Inkscape (http://www.inkscape.org/) -->

<svg width="1250" height="730" viewBox="0 0 330.72916 193.14583" version="1.1" id="svg1" inkscape:version="1.3.2 (1:1.3.2+202311252150+091e20ef0f)" sodipodi:docname="erreurs-topologie-polygones.svg" inkscape:export-filename="erreurs-topologie-polygones.png" inkscape:export-xdpi="96" inkscape:export-ydpi="96" xmlns:inkscape="http://www.inkscape.org/namespaces/inkscape" xmlns:sodipodi="http://sodipodi.sourceforge.net/DTD/sodipodi-0.dtd" xmlns="http://www.w3.org/2000/svg" xmlns:svg="http://www.w3.org/2000/svg">
  <sodipodi:namedview id="namedview1" pagecolor="#ffffff" bordercolor="#666666" borderopacity="1.0" inkscape:showpageshadow="2" inkscape:pageopacity="0.0" inkscape:pagecheckerboard="0" inkscape:deskcolor="#d1d1d1" inkscape:document-units="px" inkscape:zoom="0.51179503" inkscape:cx="-205.16026" inkscape:cy="489.45375" inkscape:window-width="3440" inkscape:window-height="1404" inkscape:window-x="0" inkscape:window-y="0" inkscape:window-maximized="1" inkscape:current-layer="layer1" />
  <defs id="defs1">
    <clipPath clipPathUnits="userSpaceOnUse" id="clipPath138">
      <path d="M 41,58 H 954 V 588 H 41 Z" transform="matrix(1.3333333,0,0,-1.3333333,5541.3333,1024)" id="path138" />
    </clipPath>
    <clipPath clipPathUnits="userSpaceOnUse" id="clipPath136">
      <path d="M 42,227.1774 H 385.3256 V 495.6956 H 42 Z" transform="translate(2.5e-5)" id="path136" />
    </clipPath>
    <clipPath clipPathUnits="userSpaceOnUse" id="clipPath137">
      <path d="M 42,227.1774 H 385.3256 V 495.6956 H 42 Z" transform="matrix(0.827855,0,0,0.82707994,-146.79376,-409.43087)" id="path137" />
    </clipPath>
    <clipPath clipPathUnits="userSpaceOnUse" id="clipPath141">
      <path d="M 41,58 H 954 V 588 H 41 Z" transform="matrix(1.3333333,0,0,-1.3333333,5541.3333,1024)" id="path141" />
    </clipPath>
    <clipPath clipPathUnits="userSpaceOnUse" id="clipPath139">
      <path d="M 176.5476,377.3757 H 479.6151 V 587.5404 H 176.5476 Z" transform="translate(2.5e-5)" id="path139" />
    </clipPath>
    <clipPath clipPathUnits="userSpaceOnUse" id="clipPath140">
      <path d="M 176.5476,377.3757 H 479.6151 V 587.5404 H 176.5476 Z" transform="matrix(0.827855,0,0,0.82707994,-172.29376,-475.43086)" id="path140" />
    </clipPath>
    <clipPath clipPathUnits="userSpaceOnUse" id="clipPath144">
      <path d="M 41,58 H 954 V 588 H 41 Z" transform="matrix(1.3333333,0,0,-1.3333333,5541.3333,1024)" id="path144" />
    </clipPath>
    <clipPath clipPathUnits="userSpaceOnUse" id="clipPath142">
      <path d="M 142.0584,115.9661 H 577.1659 V 481.3197 H 142.0584 Z" transform="translate(2.5e-5)" id="path142" />
    </clipPath>
    <clipPath clipPathUnits="userSpaceOnUse" id="clipPath143">
      <path d="M 142.0584,115.9661 H 577.1659 V 481.3197 H 142.0584 Z" transform="matrix(0.827855,0,0,0.82707994,-276.13267,-312.80874)" id="path143" />
    </clipPath>
    <clipPath clipPathUnits="userSpaceOnUse" id="clipPath145">
      <path d="M 41,58 H 954 V 588 H 41 Z" transform="matrix(0.827855,0,0,0.82707994,-344.16981,-354.02114)" id="path145" />
    </clipPath>
    <clipPath clipPathUnits="userSpaceOnUse" id="clipPath146">
      <path d="M 41,58 H 954 V 588 H 41 Z" transform="translate(2.5e-5)" id="path146" />
    </clipPath>
    <clipPath clipPathUnits="userSpaceOnUse" id="clipPath147">
      <path d="M 41,58 H 954 V 588 H 41 Z" transform="matrix(0.827855,0,0,0.82707994,-680.84548,-219.45524)" id="path147" />
    </clipPath>
    <clipPath clipPathUnits="userSpaceOnUse" id="clipPath148">
      <path d="M 41,58 H 954 V 588 H 41 Z" transform="translate(2.5e-5)" id="path148" />
    </clipPath>
    <clipPath clipPathUnits="userSpaceOnUse" id="clipPath149">
      <path d="M 41,58 H 954 V 588 H 41 Z" transform="matrix(0.827855,0,0,0.82707994,-265.91926,-207.37813)" id="path149" />
    </clipPath>
    <clipPath clipPathUnits="userSpaceOnUse" id="clipPath150">
      <path d="M 41,58 H 954 V 588 H 41 Z" transform="translate(2.5e-5)" id="path150" />
    </clipPath>
    <clipPath clipPathUnits="userSpaceOnUse" id="clipPath151">
      <path d="M 41,58 H 954 V 588 H 41 Z" transform="matrix(0.827855,0,0,-0.82707994,-418.29379,411.43086)" id="path151" />
    </clipPath>
    <clipPath clipPathUnits="userSpaceOnUse" id="clipPath152">
      <path d="M 41,58 H 954 V 588 H 41 Z" transform="matrix(0.827855,0,0,-0.82707994,-373.29383,96.430854)" id="path152" />
    </clipPath>
    <clipPath clipPathUnits="userSpaceOnUse" id="clipPath153">
      <path d="M 41,58 H 954 V 588 H 41 Z" transform="matrix(0.827855,0,0,-0.82707994,-555.0698,78.358856)" id="path153" />
    </clipPath>
    <clipPath clipPathUnits="userSpaceOnUse" id="clipPath154">
      <path d="M 41,58 H 954 V 588 H 41 Z" transform="matrix(0.827855,0,0,-0.82707994,-539.22981,54.358853)" id="path154" />
    </clipPath>
    <clipPath clipPathUnits="userSpaceOnUse" id="clipPath155">
      <path d="M 41,58 H 954 V 588 H 41 Z" transform="matrix(0.827855,0,0,0.82707994,-6.2938297,-32.430853)" id="path155" />
    </clipPath>
    <clipPath clipPathUnits="userSpaceOnUse" id="clipPath157">
      <path d="M 41,58 H 954 V 588 H 41 Z" transform="matrix(1.3333333,0,0,-1.3333333,5541.3333,1024)" id="path157" />
    </clipPath>
    <clipPath clipPathUnits="userSpaceOnUse" id="clipPath156">
      <path d="M 730.6252,137.6633 H 940.006 V 418.7744 H 730.6252 Z" transform="matrix(0.827855,0,0,0.82707994,-776.17651,-115.34299)" id="path156" />
    </clipPath>
    <clipPath clipPathUnits="userSpaceOnUse" id="clipPath159">
      <path d="M 41,58 H 954 V 588 H 41 Z" transform="matrix(1.3333333,0,0,-1.3333333,5541.3333,1024)" id="path159" />
    </clipPath>
    <clipPath clipPathUnits="userSpaceOnUse" id="clipPath158">
      <path d="M 730.839,297.6809 H 953.7971 V 419.0356 H 730.839 Z" transform="matrix(0.827855,0,0,0.82707994,-606.863,-344.87621)" id="path158" />
    </clipPath>
    <clipPath clipPathUnits="userSpaceOnUse" id="clipPath161">
      <path d="M 41,58 H 954 V 588 H 41 Z" transform="matrix(1.3333333,0,0,-1.3333333,5541.3333,1024)" id="path161" />
    </clipPath>
    <clipPath clipPathUnits="userSpaceOnUse" id="clipPath160">
      <path d="M 853.1551,137.9739 H 953.849 V 347.7328 H 853.1551 Z" transform="matrix(0.827855,0,0,0.82707994,-788.26929,-285.51775)" id="path160" />
    </clipPath>
    <clipPath clipPathUnits="userSpaceOnUse" id="clipPath162">
      <path d="M 41,58 H 954 V 588 H 41 Z" transform="matrix(0.827855,0,0,0.82707994,-6.2938297,-32.430853)" id="path162" />
    </clipPath>
    <clipPath clipPathUnits="userSpaceOnUse" id="clipPath163">
      <path d="M 41,58 H 954 V 588 H 41 Z" transform="matrix(0.827855,0,0,0.82707994,-6.2938297,-32.430853)" id="path163" />
    </clipPath>
    <clipPath clipPathUnits="userSpaceOnUse" id="clipPath165">
      <path d="M 41,58 H 954 V 588 H 41 Z" transform="matrix(1.3333333,0,0,-1.3333333,5541.3333,1024)" id="path165" />
    </clipPath>
    <clipPath clipPathUnits="userSpaceOnUse" id="clipPath164">
      <path d="M 844.784,269.8831 H 869.54679 V 294.6691 H 844.784 Z" transform="translate(2.5e-5)" id="path164" />
    </clipPath>
    <clipPath clipPathUnits="userSpaceOnUse" id="clipPath167">
      <path d="M 41,58 H 954 V 588 H 41 Z" transform="matrix(1.3333333,0,0,-1.3333333,5541.3333,1024)" id="path167" />
    </clipPath>
    <clipPath clipPathUnits="userSpaceOnUse" id="clipPath166">
      <path d="M 827.4924,289.1871 H 852.25519 V 313.9731 H 827.4924 Z" transform="translate(2.5e-5)" id="path166" />
    </clipPath>
    <clipPath clipPathUnits="userSpaceOnUse" id="clipPath168">
      <path d="M 41,58 H 954 V 588 H 41 Z" transform="matrix(0.827855,0,0,0.82707994,-292.29373,-330.43084)" id="path168" />
    </clipPath>
    <clipPath clipPathUnits="userSpaceOnUse" id="clipPath169">
      <path d="M 41,58 H 954 V 588 H 41 Z" transform="matrix(0.827855,0,0,0.82707994,-292.29373,-294.43086)" id="path169" />
    </clipPath>
    <clipPath clipPathUnits="userSpaceOnUse" id="clipPath1">
      <g id="g2" style="stroke-width:0.426334" transform="matrix(2.3466756,0,0,-2.3444786,-114.75792,221.877)">
        <path d="M -60.837517,199.59965 H 260.8958 V 12.95171 H -60.837517 Z" id="path1" style="stroke-width:0.568445" />
      </g>
    </clipPath>
    <clipPath clipPathUnits="userSpaceOnUse" id="clipPath2">
      <g id="g3" style="stroke-width:0.426334" transform="matrix(2.3466756,0,0,-2.3444786,-114.75792,185.87702)">
        <path d="M -60.837517,199.59965 H 260.8958 V 12.95171 H -60.837517 Z" id="path2" style="stroke-width:0.568445" />
      </g>
    </clipPath>
    <clipPath clipPathUnits="userSpaceOnUse" id="clipPath3">
      <g id="g4" style="stroke-width:0.264583" transform="matrix(3.7795276,0,0,3.7795276,5827.2704,191.66149)">
        <path d="M -60.837517,199.59965 H 260.8958 V 12.95171 H -60.837517 Z" id="path3" style="stroke-width:0.352777" />
      </g>
    </clipPath>
    <clipPath clipPathUnits="userSpaceOnUse" id="clipPath4">
      <g id="g5" style="stroke-width:0.264583" transform="matrix(3.7795276,0,0,3.7795276,5827.2704,191.66149)">
        <path d="M -60.837517,199.59965 H 260.8958 V 12.95171 H -60.837517 Z" id="path4" style="stroke-width:0.352777" />
      </g>
    </clipPath>
    <clipPath clipPathUnits="userSpaceOnUse" id="clipPath5">
      <g id="g6" style="stroke-width:0.426334" transform="matrix(2.3466756,0,0,-2.3444786,171.24198,483.87701)">
        <path d="M -60.837517,199.59965 H 260.8958 V 12.95171 H -60.837517 Z" id="path5" style="stroke-width:0.568445" />
      </g>
    </clipPath>
    <clipPath clipPathUnits="userSpaceOnUse" id="clipPath6">
      <g id="g7" style="stroke-width:0.426334" transform="matrix(2.3466756,0,0,-2.3444786,171.24198,483.87701)">
        <path d="M -60.837517,199.59965 H 260.8958 V 12.95171 H -60.837517 Z" id="path6" style="stroke-width:0.568445" />
      </g>
    </clipPath>
    <clipPath clipPathUnits="userSpaceOnUse" id="clipPath7">
      <g id="g8" style="stroke-width:0.264583" transform="matrix(3.7795276,0,0,3.7795276,5827.2704,191.66149)">
        <path d="M -60.837517,199.59965 H 260.8958 V 12.95171 H -60.837517 Z" id="path7" style="stroke-width:0.352777" />
      </g>
    </clipPath>
    <clipPath clipPathUnits="userSpaceOnUse" id="clipPath8">
      <g id="g9" style="stroke-width:0.264583" transform="matrix(3.7795276,0,0,3.7795276,5827.2704,191.66149)">
        <path d="M -60.837517,199.59965 H 260.8958 V 12.95171 H -60.837517 Z" id="path8" style="stroke-width:0.352777" />
      </g>
    </clipPath>
    <clipPath clipPathUnits="userSpaceOnUse" id="clipPath9">
      <g id="g10" style="stroke-width:0.264583" transform="matrix(3.7795276,0,0,3.7795276,5827.2704,191.66149)">
        <path d="M -60.837517,199.59965 H 260.8958 V 12.95171 H -60.837517 Z" id="path9" style="stroke-width:0.352777" />
      </g>
    </clipPath>
    <clipPath clipPathUnits="userSpaceOnUse" id="clipPath10">
      <g id="g11" style="stroke-width:0.426334" transform="matrix(2.3466756,0,0,-2.3444786,171.24198,483.87701)">
        <path d="M -60.837517,199.59965 H 260.8958 V 12.95171 H -60.837517 Z" id="path10" style="stroke-width:0.568445" />
      </g>
    </clipPath>
    <clipPath clipPathUnits="userSpaceOnUse" id="clipPath11">
      <g id="g12" style="stroke-width:0.426334" transform="matrix(2.3466756,0,0,2.3444786,-361.694,-461.94901)">
        <path d="M -60.837517,199.59965 H 260.8958 V 12.95171 H -60.837517 Z" id="path11" style="stroke-width:0.568445" />
      </g>
    </clipPath>
    <clipPath clipPathUnits="userSpaceOnUse" id="clipPath12">
      <g id="g13" style="stroke-width:0.426334" transform="matrix(2.3466756,0,0,2.3444786,-377.53399,-437.949)">
        <path d="M -60.837517,199.59965 H 260.8958 V 12.95171 H -60.837517 Z" id="path12" style="stroke-width:0.568445" />
      </g>
    </clipPath>
    <clipPath clipPathUnits="userSpaceOnUse" id="clipPath13">
      <g id="g14" style="stroke-width:0.426334" transform="matrix(2.3466756,0,0,2.3444786,-195.75802,-419.87701)">
        <path d="M -60.837517,199.59965 H 260.8958 V 12.95171 H -60.837517 Z" id="path13" style="stroke-width:0.568445" />
      </g>
    </clipPath>
    <clipPath clipPathUnits="userSpaceOnUse" id="clipPath14">
      <g id="g15" style="stroke-width:0.426334" transform="matrix(2.3466756,0,0,2.3444786,-240.75798,-104.877)">
        <path d="M -60.837517,199.59965 H 260.8958 V 12.95171 H -60.837517 Z" id="path14" style="stroke-width:0.568445" />
      </g>
    </clipPath>
    <clipPath clipPathUnits="userSpaceOnUse" id="clipPath15">
      <g id="g16" style="stroke-width:0.352777" transform="matrix(2.8346458,0,0,-2.8346458,214.45281,624.25389)">
        <path d="M -60.837517,199.59965 H 260.8958 V 12.95171 H -60.837517 Z" id="path15" style="stroke-width:0.470369" />
      </g>
    </clipPath>
    <clipPath clipPathUnits="userSpaceOnUse" id="clipPath16">
      <g id="g17" style="stroke-width:0.426334" transform="matrix(2.3466756,0,0,-2.3444786,-88.383451,308.92972)">
        <path d="M -60.837517,199.59965 H 260.8958 V 12.95171 H -60.837517 Z" id="path16" style="stroke-width:0.568445" />
      </g>
    </clipPath>
    <clipPath clipPathUnits="userSpaceOnUse" id="clipPath17">
      <g id="g18" style="stroke-width:0.352777" transform="matrix(2.8346458,0,0,-2.8346458,214.45281,624.25389)">
        <path d="M -60.837517,199.59965 H 260.8958 V 12.95171 H -60.837517 Z" id="path17" style="stroke-width:0.470369" />
      </g>
    </clipPath>
    <clipPath clipPathUnits="userSpaceOnUse" id="clipPath18">
      <g id="g19" style="stroke-width:0.426334" transform="matrix(2.3466756,0,0,-2.3444786,-503.30968,296.85263)">
        <path d="M -60.837517,199.59965 H 260.8958 V 12.95171 H -60.837517 Z" id="path18" style="stroke-width:0.568445" />
      </g>
    </clipPath>
    <clipPath clipPathUnits="userSpaceOnUse" id="clipPath19">
      <g id="g20" style="stroke-width:0.352777" transform="matrix(2.8346458,0,0,-2.8346458,214.45281,624.25389)">
        <path d="M -60.837517,199.59965 H 260.8958 V 12.95171 H -60.837517 Z" id="path19" style="stroke-width:0.470369" />
      </g>
    </clipPath>
    <clipPath clipPathUnits="userSpaceOnUse" id="clipPath20">
      <g id="g21" style="stroke-width:0.426334" transform="matrix(2.3466756,0,0,-2.3444786,-166.634,162.28672)">
        <path d="M -60.837517,199.59965 H 260.8958 V 12.95171 H -60.837517 Z" id="path20" style="stroke-width:0.568445" />
      </g>
    </clipPath>
    <clipPath clipPathUnits="userSpaceOnUse" id="clipPath21">
      <g id="g22" style="stroke-width:0.264583" transform="matrix(3.7795276,0,0,3.7795276,5827.2704,191.66149)">
        <path d="M -60.837517,199.59965 H 260.8958 V 12.95171 H -60.837517 Z" id="path21" style="stroke-width:0.352777" />
      </g>
    </clipPath>
    <clipPath clipPathUnits="userSpaceOnUse" id="clipPath22">
      <g id="g23" style="stroke-width:0.264583" transform="matrix(3.7795276,0,0,3.7795276,5827.2704,191.66149)">
        <path d="M -60.837517,199.59965 H 260.8958 V 12.95171 H -60.837517 Z" id="path22" style="stroke-width:0.352777" />
      </g>
    </clipPath>
    <clipPath clipPathUnits="userSpaceOnUse" id="clipPath23">
      <g id="g24" style="stroke-width:0.264583" transform="matrix(3.7795276,0,0,3.7795276,5827.2704,191.66149)">
        <path d="M -60.837517,199.59965 H 260.8958 V 12.95171 H -60.837517 Z" id="path23" style="stroke-width:0.352777" />
      </g>
    </clipPath>
  </defs>
  <g inkscape:label="Layer 1" inkscape:groupmode="layer" id="layer1">
    <g clip-path="url(#clipPath23)" id="g171" transform="matrix(0.26458333,0,0,0.26458333,-1478.6971,-61.116785)">
      <path d="M 177.3182,495.0318 52.29637,436.9963 42.63284,343.8977 174.2984,227.8267 308.3798,253.2172 384.4801,310.0436 280.5972,449.087 Z" style="fill:#80cc28;fill-opacity:1;fill-rule:nonzero;stroke:none" transform="matrix(1.3333333,0,0,-1.3333333,5541.3333,1024)" clip-path="url(#clipPath136)" id="path170" />
      <path d="M 0,0 -103.5,-48 -111.5,-125 -2.5,-221 108.5,-200 171.5,-153 85.5,-38 Z" style="fill:none;stroke:#231f20;stroke-width:1;stroke-linecap:butt;stroke-linejoin:miter;stroke-miterlimit:10;stroke-dasharray:none;stroke-opacity:1" transform="matrix(1.610588,0,0,-1.6120973,5777.7576,363.9576)" clip-path="url(#clipPath137)" id="path171" />
    </g>
    <g clip-path="url(#clipPath22)" id="g173" transform="matrix(0.26458333,0,0,0.26458333,-1478.6971,-61.116785)">
      <path d="M 208.1207,574.8306 177.3182,495.0318 280.5972,449.087 333.5521,378.2088 478.6995,480.5229 424.3421,538.5584 301.1322,586.9214 Z" style="fill:#00adef;fill-opacity:1;fill-rule:nonzero;stroke:none" transform="matrix(1.3333333,0,0,-1.3333333,5541.3333,1024)" clip-path="url(#clipPath139)" id="path172" />
      <path d="M 0,0 -25.5,-66 60,-104 103.839,-162.622 224,-78 179,-30 77,10 Z" style="fill:none;stroke:#231f20;stroke-width:1;stroke-linecap:butt;stroke-linejoin:miter;stroke-miterlimit:10;stroke-dasharray:none;stroke-opacity:1" transform="matrix(1.610588,0,0,-1.6120973,5818.8276,257.5592)" clip-path="url(#clipPath140)" id="path173" />
    </g>
    <g clip-path="url(#clipPath21)" id="g175" transform="matrix(0.26458333,0,0,0.26458333,-1478.6971,-61.116785)">
      <path d="M 333.552,378.2086 384.48,310.0435 303.9514,260.4715 174.2983,227.8265 142.8918,157.7003 280.5971,116.5918 456.9564,160.1185 576.5425,268.935 566.879,407.9784 478.6993,480.5228 409.041,418.0548 Z" style="fill:#f14624;fill-opacity:1;fill-rule:nonzero;stroke:none" transform="matrix(1.3333333,0,0,-1.3333333,5541.3333,1024)" clip-path="url(#clipPath142)" id="path174" />
      <path d="M 0,0 42.161,-56.378 -24.505,-97.378 -131.839,-124.378 -157.839,-182.378 -43.839,-216.378 102.161,-180.378 201.161,-90.378 193.161,24.622 120.161,84.622 62.494,32.956 Z" style="fill:none;stroke:#231f20;stroke-width:1;stroke-linecap:butt;stroke-linejoin:miter;stroke-miterlimit:10;stroke-dasharray:none;stroke-opacity:1" transform="matrix(1.610588,0,0,-1.6120973,5986.0693,519.72187)" clip-path="url(#clipPath143)" id="path175" />
    </g>
    <path d="M 0,0 96.124,49.41" style="fill:none;stroke:#231f20;stroke-width:3;stroke-linecap:butt;stroke-linejoin:miter;stroke-miterlimit:10;stroke-dasharray:none;stroke-opacity:1" transform="matrix(0.42613474,0,0,-0.42653407,134.11002,58.814465)" clip-path="url(#clipPath20)" id="path176" />
    <path d="M 418.6292,429.5258 419.1764,437.1551 418.9094,437.1841 411.3755,428.5489 C 408.4499,426.1259 405.5242,423.7029 402.5986,421.2787 406.2707,422.2496 409.9417,423.2205 413.6138,424.1902 L 425.0143,425.2977 425.1617,425.4984 Z" style="fill:#231f20;fill-opacity:1;fill-rule:nonzero;stroke:none" transform="matrix(0.35277776,0,0,-0.35277776,-12.552703,209.81654)" clip-path="url(#clipPath19)" id="path177" />
    <path d="M 0,0 -44.973,-123.024" style="fill:none;stroke:#231f20;stroke-width:3;stroke-linecap:butt;stroke-linejoin:miter;stroke-miterlimit:10;stroke-dasharray:none;stroke-opacity:1" transform="matrix(0.42613474,0,0,-0.42653407,277.57922,116.21141)" clip-path="url(#clipPath18)" id="path178" />
    <path d="M 821.3041,262.2805 826.0718,256.3041 826.288,256.4625 825.9716,267.9233 C 826.4789,271.6895 826.9862,275.4558 827.4924,279.2245 825.4534,276.018 823.4131,272.8116 821.3741,269.6063 L 813.7472,261.0509 813.7762,260.803 Z" style="fill:#231f20;fill-opacity:1;fill-rule:nonzero;stroke:none" transform="matrix(0.35277776,0,0,-0.35277776,-12.552703,209.81654)" clip-path="url(#clipPath17)" id="path179" />
    <path d="M 0,0 147.375,-83.947" style="fill:none;stroke:#231f20;stroke-width:3;stroke-linecap:butt;stroke-linejoin:miter;stroke-miterlimit:10;stroke-dasharray:none;stroke-opacity:1" transform="matrix(0.42613474,0,0,-0.42653407,100.76474,121.3627)" clip-path="url(#clipPath16)" id="path180" />
    <path d="M 324.0405,249.1247 330.7216,252.8342 330.6021,253.0748 319.2595,254.6707 C 315.6333,255.7988 312.007,256.9257 308.3796,258.0537 311.1989,255.5062 314.017,252.9599 316.8364,250.4112 L 323.9922,241.4604 324.2422,241.4471 Z" style="fill:#231f20;fill-opacity:1;fill-rule:nonzero;stroke:none" transform="matrix(0.35277776,0,0,-0.35277776,-12.552703,209.81654)" clip-path="url(#clipPath15)" id="path181" />
    <path d="M 10.196334,-9.3137474 H 3.9098104 V -14.421612 H 10.564989 V -16.175926 H 1.8240039 V 5.9405015e-4 H 10.923941 V -1.75372 H 3.9098104 V -7.578818 H 10.196334 Z M 7.2471009,-19.849324 5.015773,-17.038545 H 6.7426268 L 9.7888745,-19.849324 Z M 21.384504,-2.0154133 C 20.783015,-1.75372 19.9972,-1.443565 18.794223,-1.443565 16.485284,-1.443565 14.75843,-3.0912633 14.75843,-5.7857346 14.75843,-8.2088203 16.203942,-10.176366 18.862133,-10.176366 20.016603,-10.176366 20.81212,-9.9146726 21.316594,-9.6239024 L 21.791964,-11.252216 C 21.219579,-11.542986 20.113617,-11.853141 18.862133,-11.853141 15.068875,-11.853141 12.624116,-9.2652857 12.624116,-5.6888112 12.624116,-2.1317214 14.903951,0.24290262 18.406166,0.24290262 19.968096,0.24290262 21.190475,-0.14479109 21.743456,-0.43556138 Z M 24.219745,5.9405015e-4 H 26.324955 V -17.038545 H 24.219745 Z M 38.23588,5.9405015e-4 C 38.090359,-0.79417806 38.041852,-1.7731047 38.041852,-2.7811083 V -7.1232779 C 38.041852,-9.4591325 37.178425,-11.882218 33.627703,-11.882218 32.162788,-11.882218 30.765782,-11.47514 29.805341,-10.845138 L 30.290413,-9.4591325 C 31.105332,-9.982519 32.230698,-10.321751 33.307556,-10.321751 35.684405,-10.321751 35.956045,-8.5868217 35.956045,-7.6272797 V -7.3946635 C 31.464285,-7.4140482 28.971019,-5.882658 28.971019,-3.0718786 28.971019,-1.3951033 30.164294,0.26228731 32.521741,0.26228731 34.170983,0.26228731 35.422467,-0.55186949 36.072462,-1.4629497 H 36.140372 L 36.314998,5.9405015e-4 Z M 35.994851,-3.9151124 C 35.994851,-3.6921886 35.956045,-3.4595723 35.878434,-3.2366484 35.538884,-2.2577218 34.588144,-1.2981799 33.074722,-1.2981799 31.988162,-1.2981799 31.076228,-1.9475669 31.076228,-3.3141872 31.076228,-5.5628107 33.695613,-5.9795815 35.994851,-5.9311198 Z M 41.830259,-14.402227 V -11.610833 H 40.035495 V -10.001904 H 41.830259 V -3.6728039 C 41.830259,-2.3061835 42.04369,-1.2691029 42.645178,-0.64879292 43.149652,-0.06725235 43.945169,0.24290262 44.925013,0.24290262 45.739933,0.24290262 46.389929,0.11690216 46.797389,-0.04786766 L 46.700374,-1.6277195 C 46.438436,-1.5598731 46.030976,-1.4920267 45.477995,-1.4920267 44.304122,-1.4920267 43.896662,-2.3061835 43.896662,-3.7406503 V -10.001904 H 46.923507 V -11.610833 H 43.896662 V -14.954691 Z M 54.214129,0.96013599 60.937217,-16.437619 H 59.307377 L 52.613393,0.96013599 Z M 68.184182,-14.402227 V -11.610833 H 66.389418 V -10.001904 H 68.184182 V -3.6728039 C 68.184182,-2.3061835 68.397613,-1.2691029 68.999102,-0.64879292 69.503576,-0.06725235 70.299093,0.24290262 71.278937,0.24290262 72.093856,0.24290262 72.743852,0.11690216 73.151312,-0.04786766 L 73.054298,-1.6277195 C 72.792359,-1.5598731 72.384899,-1.4920267 71.831918,-1.4920267 70.658045,-1.4920267 70.250586,-2.3061835 70.250586,-3.7406503 V -10.001904 H 73.27743 V -11.610833 H 70.250586 V -14.954691 Z M 75.651854,5.9405015e-4 H 77.737661 V -6.192813 C 77.737661,-6.5514297 77.786168,-6.8906617 77.834675,-7.1717396 78.116016,-8.7612839 79.173472,-9.8855956 80.667491,-9.8855956 80.948833,-9.8855956 81.171966,-9.8662109 81.385397,-9.8177492 V -11.804679 C 81.191368,-11.853141 81.026444,-11.882218 80.783909,-11.882218 79.3675,-11.882218 78.096614,-10.893599 77.572737,-9.3331321 H 77.475722 L 77.398111,-11.610833 H 75.55484 C 75.62275,-10.534983 75.651854,-9.3622091 75.651854,-7.9955888 Z M 88.17882,-11.882218 C 84.957947,-11.882218 82.416173,-9.5948253 82.416173,-5.7081959 82.416173,-2.0347979 84.84153,0.26228731 87.984792,0.26228731 90.788504,0.26228731 93.766842,-1.6083349 93.766842,-5.9020427 93.766842,-9.4591325 91.516111,-11.882218 88.17882,-11.882218 Z M 88.130313,-10.292674 C 90.62358,-10.292674 91.613125,-7.8017419 91.613125,-5.8341963 91.613125,-3.2172638 90.099703,-1.3175646 88.081806,-1.3175646 86.015402,-1.3175646 84.550487,-3.2366484 84.550487,-5.7857346 84.550487,-7.9955888 85.637047,-10.292674 88.130313,-10.292674 Z M 106.15799,-11.610833 H 104.04308 V -4.4869607 C 104.04308,-4.099267 103.96547,-3.7212656 103.84905,-3.4111106 103.46099,-2.4709534 102.48115,-1.4920267 101.06474,-1.4920267 99.143857,-1.4920267 98.474459,-2.9749552 98.474459,-5.1848094 V -11.610833 H 96.359548 V -4.8261927 C 96.359548,-0.74571635 98.542369,0.26228731 100.36624,0.26228731 102.43264,0.26228731 103.65502,-0.95894789 104.208,-1.8991051 H 104.25651 L 104.37293,5.9405015e-4 H 106.2453 C 106.17739,-0.91048617 106.15799,-1.9669515 106.15799,-3.168802 Z M 106.15799,-11.610833" style="fill:#231f20;fill-opacity:1;fill-rule:nonzero;stroke:none" aria-label="Éclat / trou" transform="matrix(0.42613474,0,0,0.42653407,165.69682,34.327265)" clip-path="url(#clipPath14)" id="path182" />
    <path d="M 1.0090205,-0.79545978 C 1.8724474,-0.21391921 3.5798983,0.24162091 5.1321264,0.24162091 8.9544882,0.24162091 10.797759,-1.9197715 10.797759,-4.420396 10.797759,-6.79502 9.4104552,-8.1131786 6.6746531,-9.169644 4.4433252,-10.032262 3.4537798,-10.778573 3.4537798,-12.290578 3.4537798,-13.395505 4.2978038,-14.713664 6.5000275,-14.713664 7.9649428,-14.713664 9.0515025,-14.229047 9.5753795,-13.947969 L 10.157465,-15.644129 C 9.4298581,-16.051207 8.2365827,-16.438901 6.5776389,-16.438901 3.4343769,-16.438901 1.3485704,-14.568279 1.3485704,-12.04827 1.3485704,-9.7705692 2.9784099,-8.4039489 5.6171977,-7.4637916 7.8000185,-6.6205578 8.6634454,-5.7579393 8.6634454,-4.2459338 8.6634454,-2.6176202 7.4119615,-1.4933085 5.2776478,-1.4933085 3.8418368,-1.4933085 2.4739358,-1.9682333 1.5328975,-2.5400815 Z M 23.307748,-11.612114 H 21.192837 V -4.4882424 C 21.192837,-4.1005487 21.115225,-3.7225473 20.998808,-3.4123923 20.610751,-2.4722351 19.630907,-1.4933085 18.214499,-1.4933085 16.293617,-1.4933085 15.624218,-2.9762369 15.624218,-5.1860911 V -11.612114 H 13.509308 V -4.8274744 C 13.509308,-0.74699806 15.692128,0.26100559 17.515996,0.26100559 19.5824,0.26100559 20.80478,-0.9602296 21.357761,-1.9003869 H 21.406268 L 21.522685,-6.8766526e-4 H 23.395061 C 23.327151,-0.91176789 23.307748,-1.9682333 23.307748,-3.1700838 Z M 26.812388,4.7485603 H 28.898194 V -1.5611549 H 28.946701 C 29.645204,-0.40776606 30.984001,0.26100559 32.516826,0.26100559 35.252628,0.26100559 37.804103,-1.8034634 37.804103,-5.9808632 37.804103,-9.4991836 35.689192,-11.8835 32.88548,-11.8835 30.984001,-11.8835 29.6161,-11.040266 28.752673,-9.6251841 H 28.704166 L 28.607152,-11.612114 H 26.715374 C 26.763881,-10.507187 26.812388,-9.3150291 26.812388,-7.8224083 Z M 28.898194,-6.7174812 C 28.898194,-7.0082515 28.966104,-7.3184065 29.043716,-7.5800997 29.451176,-9.169644 30.789972,-10.197032 32.235485,-10.197032 34.466813,-10.197032 35.689192,-8.210102 35.689192,-5.8839398 35.689192,-3.2185455 34.389201,-1.396385 32.157873,-1.396385 30.644451,-1.396385 29.373564,-2.4043887 28.995209,-3.8679324 28.946701,-4.1296257 28.898194,-4.420396 28.898194,-4.730551 Z M 49.799916,-5.4283996 C 49.819319,-5.6416312 49.867826,-5.9808632 49.867826,-6.4073263 49.867826,-8.5396417 48.868579,-11.8835 45.075322,-11.8835 41.689524,-11.8835 39.623121,-9.1211823 39.623121,-5.6125542 39.623121,-2.1136184 41.757434,0.24162091 45.33726,0.24162091 47.180531,0.24162091 48.451418,-0.14607281 49.198428,-0.48530481 L 48.839475,-1.9973103 C 48.043958,-1.6580783 47.132024,-1.396385 45.628303,-1.396385 43.513392,-1.396385 41.689524,-2.5691585 41.641017,-5.4283996 Z M 41.66042,-6.9404051 C 41.835046,-8.4039489 42.766383,-10.371494 44.900696,-10.371494 47.277546,-10.371494 47.859631,-8.2779484 47.830527,-6.9404051 Z M 52.492062,-6.8766526e-4 H 54.577868 V -6.1940947 C 54.577868,-6.5527114 54.626376,-6.8919434 54.674883,-7.1730213 54.956224,-8.7625656 56.013679,-9.8868773 57.507699,-9.8868773 57.78904,-9.8868773 58.012173,-9.8674926 58.225605,-9.8190309 V -11.805961 C 58.031576,-11.854423 57.866652,-11.8835 57.624116,-11.8835 56.207708,-11.8835 54.936821,-10.894881 54.412944,-9.3344138 H 54.31593 L 54.238319,-11.612114 H 52.395048 C 52.462958,-10.536264 52.492062,-9.3634908 52.492062,-7.9968705 Z M 60.435104,4.7485603 H 62.520911 V -1.5611549 H 62.569418 C 63.267921,-0.40776606 64.606717,0.26100559 66.139543,0.26100559 68.875345,0.26100559 71.42682,-1.8034634 71.42682,-5.9808632 71.42682,-9.4991836 69.311909,-11.8835 66.508197,-11.8835 64.606717,-11.8835 63.238816,-11.040266 62.375389,-9.6251841 H 62.326882 L 62.229868,-11.612114 H 60.33809 C 60.386597,-10.507187 60.435104,-9.3150291 60.435104,-7.8224083 Z M 62.520911,-6.7174812 C 62.520911,-7.0082515 62.588821,-7.3184065 62.666432,-7.5800997 63.073892,-9.169644 64.412689,-10.197032 65.858201,-10.197032 68.089529,-10.197032 69.311909,-8.210102 69.311909,-5.8839398 69.311909,-3.2185455 68.011918,-1.396385 65.78059,-1.396385 64.267167,-1.396385 62.996281,-2.4043887 62.617925,-3.8679324 62.569418,-4.1296257 62.520911,-4.420396 62.520911,-4.730551 Z M 79.010909,-11.8835 C 75.790036,-11.8835 73.248262,-9.596107 73.248262,-5.7094776 73.248262,-2.0360797 75.673619,0.26100559 78.816881,0.26100559 81.620593,0.26100559 84.598931,-1.6096166 84.598931,-5.9033244 84.598931,-9.4604142 82.3482,-11.8835 79.010909,-11.8835 Z M 78.962402,-10.293956 C 81.455669,-10.293956 82.445214,-7.8030236 82.445214,-5.835478 82.445214,-3.2185455 80.931792,-1.3188463 78.913895,-1.3188463 76.847491,-1.3188463 75.382576,-3.2379302 75.382576,-5.7870163 75.382576,-7.9968705 76.469136,-10.293956 78.962402,-10.293956 Z M 86.442202,-0.55315121 C 87.266823,-0.06853406 88.440695,0.24162091 89.711582,0.24162091 92.466787,0.24162091 94.057821,-1.2025382 94.057821,-3.2379302 94.057821,-4.9728595 93.019768,-5.9808632 91.011573,-6.7465583 89.498151,-7.3184065 88.799648,-7.7545619 88.799648,-8.7141039 88.799648,-9.5767224 89.498151,-10.293956 90.739933,-10.293956 91.826493,-10.293956 92.660815,-9.9159544 93.116783,-9.6251841 L 93.650361,-11.156574 C 93.000365,-11.544268 91.972014,-11.8835 90.78844,-11.8835 88.295174,-11.8835 86.781751,-10.342417 86.781751,-8.4717953 86.781751,-7.0760979 87.771297,-5.9324015 89.857103,-5.1860911 91.419033,-4.6045505 92.01082,-4.052087 92.01082,-3.0440833 92.01082,-2.0845414 91.292914,-1.3188463 89.760089,-1.3188463 88.702634,-1.3188463 87.596671,-1.7550017 86.97578,-2.1620801 Z M 98.877004,-6.8766526e-4 V -11.612114 H 96.771795 V -6.8766526e-4 Z M 97.819549,-16.196593 C 97.053136,-16.196593 96.500155,-15.624744 96.500155,-14.878434 96.500155,-14.161201 97.033733,-13.57966 97.780743,-13.57966 98.615066,-13.57966 99.148644,-14.161201 99.11954,-14.878434 99.11954,-15.624744 98.615066,-16.196593 97.819549,-16.196593 Z M 102.86429,-14.403509 V -11.612114 H 101.06953 V -10.003185 H 102.86429 V -3.6740856 C 102.86429,-2.3074653 103.07772,-1.2703846 103.67921,-0.65007463 104.18368,-0.06853406 104.9792,0.24162091 105.95904,0.24162091 106.77396,0.24162091 107.42396,0.11562045 107.83142,-0.04914938 L 107.73441,-1.6290013 C 107.47247,-1.5611549 107.06501,-1.4933085 106.51203,-1.4933085 105.33815,-1.4933085 104.93069,-2.3074653 104.93069,-3.741932 V -10.003185 H 107.95754 V -11.612114 H 104.93069 V -14.955973 Z M 112.43717,-6.8766526e-4 V -11.612114 H 110.33196 V -6.8766526e-4 Z M 111.37972,-16.196593 C 110.6133,-16.196593 110.06032,-15.624744 110.06032,-14.878434 110.06032,-14.161201 110.5939,-13.57966 111.34091,-13.57966 112.17523,-13.57966 112.70881,-14.161201 112.67971,-14.878434 112.67971,-15.624744 112.17523,-16.196593 111.37972,-16.196593 Z M 120.86771,-11.8835 C 117.64684,-11.8835 115.10506,-9.596107 115.10506,-5.7094776 115.10506,-2.0360797 117.53042,0.26100559 120.67368,0.26100559 123.47739,0.26100559 126.45573,-1.6096166 126.45573,-5.9033244 126.45573,-9.4604142 124.205,-11.8835 120.86771,-11.8835 Z M 120.8192,-10.293956 C 123.31247,-10.293956 124.30202,-7.8030236 124.30202,-5.835478 124.30202,-3.2185455 122.78859,-1.3188463 120.7707,-1.3188463 118.70429,-1.3188463 117.23938,-3.2379302 117.23938,-5.7870163 117.23938,-7.9968705 118.32594,-10.293956 120.8192,-10.293956 Z M 129.12362,-6.8766526e-4 H 131.22883 V -6.9888668 C 131.22883,-7.3474835 131.27734,-7.7061002 131.37436,-7.9677935 131.73331,-9.1405669 132.81987,-10.129186 134.20717,-10.129186 136.19596,-10.129186 136.89447,-8.5687187 136.89447,-6.6980965 V -6.8766526e-4 H 139.00938 V -6.9404051 C 139.00938,-10.923958 136.51611,-11.8835 134.90567,-11.8835 132.98479,-11.8835 131.63629,-10.797958 131.06391,-9.6930305 H 131.0154 L 130.89899,-11.612114 H 129.02661 C 129.09452,-10.652572 129.12362,-9.6736458 129.12362,-8.4717953 Z M 129.12362,-6.8766526e-4" style="fill:#231f20;fill-opacity:1;fill-rule:nonzero;stroke:none" aria-label="Superposition" transform="matrix(0.42613474,0,0,0.42653407,146.52078,168.6855)" clip-path="url(#clipPath13)" id="path183" />
    <path d="M 1.8235557,0.00110859 H 3.9093623 V -6.4830687 C 4.3944336,-6.3570683 4.9668177,-6.3376836 5.5877089,-6.3376836 7.6347098,-6.3376836 9.4294736,-6.9386089 10.535436,-8.1113823 11.350356,-8.9546162 11.78692,-10.098313 11.78692,-11.561856 11.78692,-13.006015 11.253342,-14.178789 10.370512,-14.954176 9.4100707,-15.816795 7.8966483,-16.29172 5.8302446,-16.29172 4.1518979,-16.29172 2.832504,-16.146335 1.8235557,-15.981565 Z M 3.9093623,-14.469559 C 4.268315,-14.566483 4.9668177,-14.634329 5.8787517,-14.634329 8.1876911,-14.634329 9.6914121,-13.606941 9.6914121,-11.474625 9.6914121,-9.2356941 8.1585868,-8.0144589 5.6362161,-8.0144589 4.9474148,-8.0144589 4.3653293,-8.0629206 3.9093623,-8.1792287 Z M 18.842282,-11.881704 C 15.621409,-11.881704 13.079635,-9.5943108 13.079635,-5.7076813 13.079635,-2.0342834 15.504991,0.26280185 18.648253,0.26280185 21.451966,0.26280185 24.430303,-1.6078203 24.430303,-5.9015282 24.430303,-9.458618 22.179572,-11.881704 18.842282,-11.881704 Z M 18.793775,-10.292159 C 21.287041,-10.292159 22.276587,-7.8012274 22.276587,-5.8336818 22.276587,-3.2167492 20.763164,-1.31705 18.745268,-1.31705 16.678864,-1.31705 15.213949,-3.2361339 15.213949,-5.7852201 15.213949,-7.9950742 16.300508,-10.292159 18.793775,-10.292159 Z M 29.20583,0.00110859 V -11.610318 H 27.100621 V 0.00110859 Z M 28.148375,-16.194796 C 27.381962,-16.194796 26.828981,-15.622948 26.828981,-14.876638 26.828981,-14.159404 27.362559,-13.577864 28.109569,-13.577864 28.943892,-13.577864 29.47747,-14.159404 29.448366,-14.876638 29.448366,-15.622948 28.943892,-16.194796 28.148375,-16.194796 Z M 32.715321,0.00110859 H 34.82053 V -6.9870706 C 34.82053,-7.3456873 34.869037,-7.7043039 34.966052,-7.9659972 35.325004,-9.1387707 36.411564,-10.12739 37.798868,-10.12739 39.78766,-10.12739 40.486163,-8.5669225 40.486163,-6.6963003 V 0.00110859 H 42.601074 V -6.9386089 C 42.601074,-10.922162 40.107807,-11.881704 38.497371,-11.881704 36.576488,-11.881704 35.22799,-10.796161 34.655606,-9.6912342 H 34.607099 L 34.490682,-11.610318 H 32.618307 C 32.686217,-10.650776 32.715321,-9.6718495 32.715321,-8.469999 Z M 46.416159,-14.401713 V -11.610318 H 44.621396 V -10.001389 H 46.416159 V -3.6722893 C 46.416159,-2.305669 46.629591,-1.2685883 47.231079,-0.64827838 47.735553,-0.06673781 48.53107,0.24341716 49.510914,0.24341716 50.325834,0.24341716 50.97583,0.11741671 51.383289,-0.04735312 L 51.286275,-1.627205 C 51.024337,-1.5593586 50.616877,-1.4915122 50.063896,-1.4915122 48.890023,-1.4915122 48.482563,-2.305669 48.482563,-3.7401357 V -10.001389 H 51.509408 V -11.610318 H 48.482563 V -14.954176 Z M 58.97223,0.00110859 H 61.028932 V -7.0064553 C 61.028932,-7.3650719 61.077439,-7.7236886 61.203558,-8.0338436 61.533406,-9.090309 62.493847,-10.146774 63.813241,-10.146774 65.423678,-10.146774 66.238598,-8.809231 66.238598,-6.9579935 V 0.00110859 H 68.305001 V -7.1712251 C 68.305001,-7.5589188 68.372911,-7.9466125 68.469926,-8.2276905 68.828878,-9.2647711 69.769917,-10.146774 70.972894,-10.146774 72.670643,-10.146774 73.485563,-8.809231 73.485563,-6.5702998 V 0.00110859 H 75.551967 V -6.8416854 C 75.551967,-10.8737 73.272131,-11.881704 71.739306,-11.881704 70.633344,-11.881704 69.866931,-11.590933 69.168428,-11.057855 68.693059,-10.699238 68.237091,-10.195236 67.868437,-9.5458491 H 67.829632 C 67.325157,-10.922162 66.122181,-11.881704 64.540848,-11.881704 62.619966,-11.881704 61.533406,-10.844623 60.893112,-9.7396959 H 60.815501 L 60.718486,-11.610318 H 58.875216 C 58.943126,-10.650776 58.97223,-9.6718495 58.97223,-8.469999 Z M 87.341624,0.00110859 C 87.196103,-0.79366352 87.147596,-1.7725901 87.147596,-2.7805938 V -7.1227634 C 87.147596,-9.458618 86.284169,-11.881704 82.733447,-11.881704 81.268532,-11.881704 79.871526,-11.474625 78.911085,-10.844623 L 79.396157,-9.458618 C 80.211076,-9.9820045 81.336442,-10.321237 82.4133,-10.321237 84.790149,-10.321237 85.061789,-8.5863071 85.061789,-7.6267652 V -7.394149 C 80.570029,-7.4135337 78.076763,-5.8821435 78.076763,-3.0713641 78.076763,-1.3945888 79.270038,0.26280185 81.627484,0.26280185 83.276727,0.26280185 84.528211,-0.55135495 85.178206,-1.4624352 H 85.246116 L 85.420742,0.00110859 Z M 85.100595,-3.9145979 C 85.100595,-3.691674 85.061789,-3.4590578 84.984178,-3.2361339 84.644628,-2.2572073 83.693888,-1.2976653 82.180466,-1.2976653 81.093906,-1.2976653 80.181972,-1.9470523 80.181972,-3.3136726 80.181972,-5.5622962 82.801357,-5.9790669 85.100595,-5.9306052 Z M 90.555222,0.00110859 H 92.660431 V -6.9870706 C 92.660431,-7.3456873 92.708938,-7.7043039 92.805952,-7.9659972 93.164905,-9.1387707 94.251465,-10.12739 95.638769,-10.12739 97.627561,-10.12739 98.326064,-8.5669225 98.326064,-6.6963003 V 0.00110859 H 100.44097 V -6.9386089 C 100.44097,-10.922162 97.947708,-11.881704 96.337271,-11.881704 94.416389,-11.881704 93.067891,-10.796161 92.495507,-9.6912342 H 92.447 L 92.330583,-11.610318 H 90.458207 C 90.526117,-10.650776 90.555222,-9.6718495 90.555222,-8.469999 Z M 111.79164,4.7503566 H 113.90655 V -8.4215373 C 113.90655,-9.6233878 113.92596,-10.631391 113.97446,-11.610318 H 111.98567 L 111.90806,-9.8656964 H 111.85955 C 111.28717,-10.990008 110.08419,-11.881704 108.28943,-11.881704 105.83497,-11.881704 103.03126,-9.9626198 103.03126,-5.6107579 103.03126,-2.0827451 105.24318,0.26280185 107.94988,0.26280185 109.82225,0.26280185 111.12224,-0.64827838 111.74314,-1.8016672 H 111.79164 Z M 111.79164,-4.7287547 C 111.79164,-4.4185997 111.72373,-4.001829 111.62672,-3.720751 111.14165,-2.2572073 109.96777,-1.4139735 108.59987,-1.4139735 106.27153,-1.4139735 105.16557,-3.4299808 105.16557,-5.7367584 105.16557,-8.3536909 106.48496,-10.195236 108.66778,-10.195236 110.25882,-10.195236 111.38418,-9.090309 111.69463,-7.8012274 111.77224,-7.5298418 111.79164,-7.2003021 111.79164,-6.9095318 Z M 127.10777,-11.610318 H 124.99286 V -4.4864461 C 124.99286,-4.0987524 124.91525,-3.720751 124.79883,-3.4105961 124.41077,-2.4704388 123.43093,-1.4915122 122.01452,-1.4915122 120.09364,-1.4915122 119.42424,-2.9744407 119.42424,-5.1842948 V -11.610318 H 117.30933 V -4.8256781 C 117.30933,-0.7452018 119.49215,0.26280185 121.31602,0.26280185 123.38242,0.26280185 124.6048,-0.95843335 125.15778,-1.8985906 H 125.20629 L 125.32271,0.00110859 H 127.19508 C 127.12717,-0.90997163 127.10777,-1.966437 127.10777,-3.1682875 Z M 138.96534,0.00110859 C 138.81982,-0.79366352 138.77131,-1.7725901 138.77131,-2.7805938 V -7.1227634 C 138.77131,-9.458618 137.90788,-11.881704 134.35716,-11.881704 132.89224,-11.881704 131.49524,-11.474625 130.5348,-10.844623 L 131.01987,-9.458618 C 131.83479,-9.9820045 132.96015,-10.321237 134.03701,-10.321237 136.41386,-10.321237 136.6855,-8.5863071 136.6855,-7.6267652 V -7.394149 C 132.19374,-7.4135337 129.70047,-5.8821435 129.70047,-3.0713641 129.70047,-1.3945888 130.89375,0.26280185 133.2512,0.26280185 134.90044,0.26280185 136.15192,-0.55135495 136.80192,-1.4624352 H 136.86983 L 137.04445,0.00110859 Z M 136.72431,-3.9145979 C 136.72431,-3.691674 136.6855,-3.4590578 136.60789,-3.2361339 136.26834,-2.2572073 135.3176,-1.2976653 133.80418,-1.2976653 132.71762,-1.2976653 131.80568,-1.9470523 131.80568,-3.3136726 131.80568,-5.5622962 134.42507,-5.9790669 136.72431,-5.9306052 Z M 142.17893,0.00110859 H 144.28414 V -6.9870706 C 144.28414,-7.3456873 144.33265,-7.7043039 144.42966,-7.9659972 144.78862,-9.1387707 145.87518,-10.12739 147.26248,-10.12739 149.25127,-10.12739 149.94978,-8.5669225 149.94978,-6.6963003 V 0.00110859 H 152.06469 V -6.9386089 C 152.06469,-10.922162 149.57142,-11.881704 147.96098,-11.881704 146.0401,-11.881704 144.6916,-10.796161 144.11922,-9.6912342 H 144.07071 L 143.95429,-11.610318 H 142.08192 C 142.14983,-10.650776 142.17893,-9.6718495 142.17893,-8.469999 Z M 155.87977,-14.401713 V -11.610318 H 154.08501 V -10.001389 H 155.87977 V -3.6722893 C 155.87977,-2.305669 156.0932,-1.2685883 156.69469,-0.64827838 157.19917,-0.06673781 157.99468,0.24341716 158.97453,0.24341716 159.78945,0.24341716 160.43944,0.11741671 160.8469,-0.04735312 L 160.74989,-1.627205 C 160.48795,-1.5593586 160.08049,-1.4915122 159.52751,-1.4915122 158.35364,-1.4915122 157.94618,-2.305669 157.94618,-3.7401357 V -10.001389 H 160.97302 V -11.610318 H 157.94618 V -14.954176 Z M 155.87977,-14.401713" style="fill:#231f20;fill-opacity:1;fill-rule:nonzero;stroke:none" aria-label="Point manquant" transform="matrix(0.42613474,0,0,0.42653407,223.98183,176.39382)" clip-path="url(#clipPath12)" id="path184" />
    <path d="M 1.7556427,4.7485974 H 3.8414493 V -1.5611178 H 3.8899564 C 4.5884591,-0.407729 5.9272558,0.26104265 7.4600811,0.26104265 10.195883,0.26104265 12.747358,-1.8034264 12.747358,-5.9808261 12.747358,-9.4991466 10.632447,-11.883463 7.8287353,-11.883463 5.9272558,-11.883463 4.5593548,-11.040229 3.6959279,-9.625147 H 3.6474208 L 3.5504065,-11.612077 H 1.6586285 C 1.7071356,-10.50715 1.7556427,-9.314992 1.7556427,-7.8223713 Z M 3.8414493,-6.7174442 C 3.8414493,-7.0082145 3.9093593,-7.3183694 3.9869707,-7.5800627 4.3944306,-9.1696069 5.7332273,-10.196995 7.1787398,-10.196995 9.4100677,-10.196995 10.632447,-8.210065 10.632447,-5.8839027 10.632447,-3.2185084 9.3324563,-1.396348 7.1011284,-1.396348 5.5877059,-1.396348 4.3168192,-2.4043516 3.9384635,-3.8678954 3.8899564,-4.1295886 3.8414493,-4.4203589 3.8414493,-4.7305139 Z M 20.331448,-11.883463 C 17.110574,-11.883463 14.568801,-9.59607 14.568801,-5.7094405 14.568801,-2.0360426 16.994157,0.26104265 20.137419,0.26104265 22.941131,0.26104265 25.919469,-1.6095795 25.919469,-5.9032874 25.919469,-9.4603772 23.668738,-11.883463 20.331448,-11.883463 Z M 20.282941,-10.293919 C 22.776207,-10.293919 23.765753,-7.8029866 23.765753,-5.835441 23.765753,-3.2185084 22.25233,-1.3188092 20.234434,-1.3188092 18.16803,-1.3188092 16.703115,-3.2378931 16.703115,-5.7869793 16.703115,-7.9968334 17.789674,-10.293919 20.282941,-10.293919 Z M 38.30819,-11.612077 H 36.193279 V -4.4882053 C 36.193279,-4.1005116 36.115668,-3.7225102 35.999251,-3.4123553 35.611193,-2.472198 34.631349,-1.4932714 33.214941,-1.4932714 31.294059,-1.4932714 30.624661,-2.9761998 30.624661,-5.186054 V -11.612077 H 28.50975 V -4.8274373 C 28.50975,-0.746961 30.692571,0.26104265 32.516439,0.26104265 34.582842,0.26104265 35.805222,-0.96019255 36.358203,-1.9003498 H 36.40671 L 36.523128,-6.506067e-4 H 38.395503 C 38.327593,-0.91173083 38.30819,-1.9681962 38.30819,-3.1700467 Z M 41.81283,-6.506067e-4 H 43.898636 V -6.1940577 C 43.898636,-6.5526743 43.947144,-6.8919063 43.995651,-7.1729843 44.276992,-8.7625285 45.334448,-9.8868403 46.828467,-9.8868403 47.109808,-9.8868403 47.332941,-9.8674556 47.546373,-9.8189939 V -11.805924 C 47.352344,-11.854386 47.18742,-11.883463 46.944884,-11.883463 45.528476,-11.883463 44.257589,-10.894844 43.733712,-9.3343767 H 43.636698 L 43.559087,-11.612077 H 41.715816 C 41.783726,-10.536227 41.81283,-9.3634538 41.81283,-7.9968334 Z M 54.747256,4.7485974 H 56.833062 V -1.5611178 H 56.88157 C 57.580072,-0.407729 58.918869,0.26104265 60.451694,0.26104265 63.187496,0.26104265 65.738971,-1.8034264 65.738971,-5.9808261 65.738971,-9.4991466 63.624061,-11.883463 60.820348,-11.883463 58.918869,-11.883463 57.550968,-11.040229 56.687541,-9.625147 H 56.639034 L 56.54202,-11.612077 H 54.650242 C 54.698749,-10.50715 54.747256,-9.314992 54.747256,-7.8223713 Z M 56.833062,-6.7174442 C 56.833062,-7.0082145 56.900972,-7.3183694 56.978584,-7.5800627 57.386044,-9.1696069 58.72484,-10.196995 60.170353,-10.196995 62.401681,-10.196995 63.624061,-8.210065 63.624061,-5.8839027 63.624061,-3.2185084 62.324069,-1.396348 60.092742,-1.396348 58.579319,-1.396348 57.308432,-2.4043516 56.930077,-3.8678954 56.88157,-4.1295886 56.833062,-4.4203589 56.833062,-4.7305139 Z M 73.323061,-11.883463 C 70.102188,-11.883463 67.560414,-9.59607 67.560414,-5.7094405 67.560414,-2.0360426 69.98577,0.26104265 73.129032,0.26104265 75.932745,0.26104265 78.911082,-1.6095795 78.911082,-5.9032874 78.911082,-9.4603772 76.660351,-11.883463 73.323061,-11.883463 Z M 73.274554,-10.293919 C 75.76782,-10.293919 76.757366,-7.8029866 76.757366,-5.835441 76.757366,-3.2185084 75.243943,-1.3188092 73.226047,-1.3188092 71.159643,-1.3188092 69.694728,-3.2378931 69.694728,-5.7869793 69.694728,-7.9968334 70.781287,-10.293919 73.274554,-10.293919 Z M 81.578974,-6.506067e-4 H 83.684184 V -17.039789 H 81.578974 Z M 85.70208,-11.612077 89.999812,-0.91173083 C 90.096826,-0.65003758 90.145333,-0.48526775 90.145333,-0.35926729 90.145333,-0.24295918 90.077423,-0.06849701 89.980409,0.14473454 89.495338,1.2205846 88.777432,2.0347414 88.205048,2.4999738 87.574455,3.0233604 86.875953,3.3625923 86.352076,3.5273622 L 86.875953,5.3010609 C 87.409531,5.2041375 88.437882,4.8455208 89.475935,3.9344406 90.911746,2.6841284 91.949799,0.64873636 93.45352,-3.3348165 L 96.625886,-11.612077 H 94.394558 L 92.085619,-4.7983603 C 91.804277,-3.9648188 91.561742,-3.0731233 91.34831,-2.3752746 H 91.299803 C 91.105774,-3.0731233 90.814732,-3.9842035 90.552793,-4.7498986 L 88.01102,-11.612077 Z M 106.46556,-11.612077 106.36854,-9.8674556 H 106.32004 C 105.81556,-10.826998 104.7096,-11.883463 102.6917,-11.883463 100.03351,-11.883463 97.462634,-9.6445317 97.462634,-5.7094405 97.462634,-2.5012751 99.529037,-0.04911232 102.41036,-0.04911232 104.20512,-0.04911232 105.45661,-0.91173083 106.1066,-1.9972732 H 106.15511 V -0.69849929 C 106.15511,2.2285882 104.56408,3.3625923 102.41036,3.3625923 100.96485,3.3625923 99.771573,2.9264369 98.995459,2.4515121 L 98.471582,4.0507487 C 99.402919,4.680751 100.94545,5.0102906 102.33275,5.0102906 103.79766,5.0102906 105.4275,4.680751 106.56257,3.6242856 107.68794,2.616282 108.21181,0.98796836 108.21181,-1.6774259 V -8.4232965 C 108.21181,-9.8383786 108.26032,-10.778536 108.30883,-11.612077 Z M 106.12601,-4.9437454 C 106.12601,-4.5851288 106.0775,-4.1780504 105.96108,-3.8194337 105.50512,-2.472198 104.33124,-1.6580412 103.03125,-1.6580412 100.75142,-1.6580412 99.596947,-3.5480481 99.596947,-5.835441 99.596947,-8.5202199 101.04246,-10.226072 103.05066,-10.226072 104.59318,-10.226072 105.62153,-9.2180686 106.00959,-7.9968334 106.1066,-7.7060631 106.12601,-7.3959082 106.12601,-7.0275991 Z M 116.63993,-11.883463 C 113.41905,-11.883463 110.87728,-9.59607 110.87728,-5.7094405 110.87728,-2.0360426 113.30264,0.26104265 116.4459,0.26104265 119.24961,0.26104265 122.22795,-1.6095795 122.22795,-5.9032874 122.22795,-9.4603772 119.97722,-11.883463 116.63993,-11.883463 Z M 116.59142,-10.293919 C 119.08469,-10.293919 120.07423,-7.8029866 120.07423,-5.835441 120.07423,-3.2185084 118.56081,-1.3188092 116.54291,-1.3188092 114.47651,-1.3188092 113.01159,-3.2378931 113.01159,-5.7869793 113.01159,-7.9968334 114.09815,-10.293919 116.59142,-10.293919 Z M 124.89827,-6.506067e-4 H 127.00348 V -6.9888298 C 127.00348,-7.3474465 127.05198,-7.7060631 127.149,-7.9677564 127.50795,-9.1405299 128.59451,-10.129149 129.98181,-10.129149 131.97061,-10.129149 132.66911,-8.5686817 132.66911,-6.6980595 V -6.506067e-4 H 134.78402 V -6.9403681 C 134.78402,-10.923921 132.29075,-11.883463 130.68032,-11.883463 128.75943,-11.883463 127.41094,-10.79792 126.83855,-9.6929934 H 126.79004 L 126.67363,-11.612077 H 124.80125 C 124.86916,-10.652535 124.89827,-9.6736087 124.89827,-8.4717582 Z M 147.5511,-5.4283626 C 147.5705,-5.6415941 147.61901,-5.9808261 147.61901,-6.4072892 147.61901,-8.5396046 146.61976,-11.883463 142.8265,-11.883463 139.4407,-11.883463 137.3743,-9.1211452 137.3743,-5.6125171 137.3743,-2.1135813 139.50861,0.24165796 143.08844,0.24165796 144.93171,0.24165796 146.2026,-0.14603575 146.94961,-0.48526775 L 146.59065,-1.9972732 C 145.79514,-1.6580412 144.8832,-1.396348 143.37948,-1.396348 141.26457,-1.396348 139.4407,-2.5691215 139.3922,-5.4283626 Z M 139.4116,-6.9403681 C 139.58622,-8.4039118 140.51756,-10.371457 142.65188,-10.371457 145.02872,-10.371457 145.61081,-8.2779114 145.58171,-6.9403681 Z M 153.8837,-11.612077 158.29785,-6.506067e-4 H 160.31575 L 164.87542,-11.612077 H 162.67319 L 160.41276,-5.0891306 C 160.0344,-4.0326652 159.69486,-3.0731233 159.43292,-2.1135813 H 159.35531 C 159.11277,-3.0731233 158.80232,-4.0326652 158.42397,-5.0891306 L 156.14413,-11.612077 Z M 175.96657,-5.4283626 C 175.98597,-5.6415941 176.03448,-5.9808261 176.03448,-6.4072892 176.03448,-8.5396046 175.03523,-11.883463 171.24198,-11.883463 167.85618,-11.883463 165.78978,-9.1211452 165.78978,-5.6125171 165.78978,-2.1135813 167.92409,0.24165796 171.50392,0.24165796 173.34719,0.24165796 174.61807,-0.14603575 175.36508,-0.48526775 L 175.00613,-1.9972732 C 174.21061,-1.6580412 173.29868,-1.396348 171.79496,-1.396348 169.68005,-1.396348 167.85618,-2.5691215 167.80767,-5.4283626 Z M 167.82708,-6.9403681 C 168.0017,-8.4039118 168.93304,-10.371457 171.06735,-10.371457 173.4442,-10.371457 174.02629,-8.2779114 173.99718,-6.9403681 Z M 178.65872,-6.506067e-4 H 180.74452 V -6.1940577 C 180.74452,-6.5526743 180.79303,-6.8919063 180.84154,-7.1729843 181.12288,-8.7625285 182.18033,-9.8868403 183.67435,-9.8868403 183.9557,-9.8868403 184.17883,-9.8674556 184.39226,-9.8189939 V -11.805924 C 184.19823,-11.854386 184.03331,-11.883463 183.79077,-11.883463 182.37436,-11.883463 181.10348,-10.894844 180.5796,-9.3343767 H 180.48259 L 180.40497,-11.612077 H 178.5617 C 178.62961,-10.536227 178.65872,-9.3634538 178.65872,-7.9968334 Z M 187.55735,-14.403472 V -11.612077 H 185.76259 V -10.003148 H 187.55735 V -3.6740485 C 187.55735,-2.3074282 187.77078,-1.2703475 188.37227,-0.65003758 188.87674,-0.06849701 189.67226,0.24165796 190.6521,0.24165796 191.46702,0.24165796 192.11702,0.11565751 192.52448,-0.04911232 L 192.42747,-1.6289642 C 192.16553,-1.5611178 191.75807,-1.4932714 191.20509,-1.4932714 190.03121,-1.4932714 189.62375,-2.3074282 189.62375,-3.7418949 V -10.003148 H 192.6506 V -11.612077 H 189.62375 V -14.955936 Z M 187.55735,-14.403472" style="fill:#231f20;fill-opacity:1;fill-rule:nonzero;stroke:none" aria-label="pour polygone vert" transform="matrix(0.42613474,0,0,0.42653407,217.23186,186.63064)" clip-path="url(#clipPath11)" id="path185" />
    <path d="M 250,262 H 286 V 298 H 250 Z" style="fill:none;stroke:#231f20;stroke-width:3;stroke-linecap:butt;stroke-linejoin:miter;stroke-miterlimit:10;stroke-dasharray:none;stroke-opacity:1" transform="matrix(0.42613474,0,0,-0.42653407,-9.8706747,195.98368)" clip-path="url(#clipPath10)" id="path186" />
    <g clip-path="url(#clipPath9)" id="g187" transform="matrix(0.26458333,0,0,0.26458333,-1478.6971,-61.116785)">
      <path d="M 0,0 -169.313,229.533" style="fill:none;stroke:#80cc28;stroke-width:5;stroke-linecap:butt;stroke-linejoin:miter;stroke-miterlimit:10;stroke-dasharray:none;stroke-opacity:1" transform="matrix(1.610588,0,0,-1.6120973,6791.4339,838.05587)" clip-path="url(#clipPath156)" id="path187" />
    </g>
    <g clip-path="url(#clipPath8)" id="g188" transform="matrix(0.26458333,0,0,0.26458333,-1478.6971,-61.116785)">
      <path d="M 0,0 88.431,-95.445 181.406,-36.635" style="fill:none;stroke:#00adef;stroke-width:5;stroke-linecap:butt;stroke-linejoin:miter;stroke-miterlimit:10;stroke-dasharray:none;stroke-opacity:1" transform="matrix(1.610588,0,0,-1.6120973,6518.7396,468.026)" clip-path="url(#clipPath158)" id="path188" />
    </g>
    <g clip-path="url(#clipPath7)" id="g189" transform="matrix(0.26458333,0,0,0.26458333,-1478.6971,-61.116785)">
      <path d="M 0,0 -78.66,-52.053 -12.093,-170.175" style="fill:none;stroke:#f14624;stroke-width:5;stroke-linecap:butt;stroke-linejoin:miter;stroke-miterlimit:10;stroke-dasharray:none;stroke-opacity:1" transform="matrix(1.610588,0,0,-1.6120973,6810.9104,563.7176)" clip-path="url(#clipPath160)" id="path189" />
    </g>
    <path d="M 553,84.02 H 781.98 V 313 H 553 Z" style="fill:none;stroke:#231f20;stroke-width:3;stroke-linecap:butt;stroke-linejoin:miter;stroke-miterlimit:10;stroke-dasharray:none;stroke-opacity:1" transform="matrix(0.42613474,0,0,-0.42653407,-9.8706747,195.98368)" clip-path="url(#clipPath6)" id="path190" />
    <path d="M 553.551,84.02 H 781.976 V 312.446 H 553.551 Z" style="fill:none;stroke:#231f20;stroke-width:3;stroke-linecap:butt;stroke-linejoin:miter;stroke-miterlimit:10;stroke-dasharray:none;stroke-opacity:1" transform="matrix(0.42613474,0,0,-0.42653407,-9.8706747,195.98368)" clip-path="url(#clipPath5)" id="path191" />
    <g clip-path="url(#clipPath4)" id="g192" transform="matrix(0.26458333,0,0,0.26458333,-1478.6971,-61.116785)">
      <path d="M 869.5473,282.2763 C 869.5473,275.4317 864.0041,269.8833 857.1659,269.8833 850.3278,269.8833 844.7845,275.4317 844.7845,282.2763 844.7845,289.1209 850.3278,294.6693 857.1659,294.6693 864.0041,294.6693 869.5473,289.1209 869.5473,282.2763" style="fill:#7b7979;fill-opacity:1;fill-rule:nonzero;stroke:none" transform="matrix(1.3333333,0,0,-1.3333333,5541.3333,1024)" clip-path="url(#clipPath164)" id="path192" />
    </g>
    <g clip-path="url(#clipPath3)" id="g193" transform="matrix(0.26458333,0,0,0.26458333,-1478.6971,-61.116785)">
      <path d="M 852.2551,301.5801 C 852.2551,294.7356 846.7119,289.1871 839.8738,289.1871 833.0356,289.1871 827.4924,294.7356 827.4924,301.5801 827.4924,308.4247 833.0356,313.9731 839.8738,313.9731 846.7119,313.9731 852.2551,308.4247 852.2551,301.5801" style="fill:#7b7979;fill-opacity:1;fill-rule:nonzero;stroke:none" transform="matrix(1.3333333,0,0,-1.3333333,5541.3333,1024)" clip-path="url(#clipPath166)" id="path193" />
    </g>
    <path d="M 0,0 267,15" style="fill:none;stroke:#231f20;stroke-width:1;stroke-linecap:butt;stroke-linejoin:miter;stroke-miterlimit:10;stroke-dasharray:none;stroke-opacity:1" transform="matrix(0.42613474,0,0,-0.42653407,112.00382,68.876532)" clip-path="url(#clipPath2)" id="path194" />
    <path d="M 0,0 267.551,-177.98" style="fill:none;stroke:#231f20;stroke-width:1;stroke-linecap:butt;stroke-linejoin:miter;stroke-miterlimit:10;stroke-dasharray:none;stroke-opacity:1" transform="matrix(0.42613474,0,0,-0.42653407,112.00382,84.23175)" clip-path="url(#clipPath1)" id="path195" />
  </g>
</svg>
